<?xml version="1.0" encoding="iso-8859-1"?>
<!-- Generator: Adobe Illustrator 19.0.0, SVG Export Plug-In . SVG Version: 6.00 Build 0)  -->
<svg xmlns="http://www.w3.org/2000/svg" xmlns:xlink="http://www.w3.org/1999/xlink" version="1.1" id="Capa_1" x="0px" y="0px" viewBox="0 0 480.006 480.006" style="enable-background:new 0 0 480.006 480.006;" xml:space="preserve" width="512px" height="512px">
<g>
	<g>
		<path d="M240,232.003h-48c-4.418-0.002-8.002,3.578-8.004,7.996c-0.001,1.243,0.288,2.468,0.844,3.58L200,273.891v30.112    c0,22.091,17.909,40,40,40c22.091,0,40-17.909,40-40v-32C279.974,249.923,262.08,232.03,240,232.003z M204.944,248.003H240    c10.168,0.012,19.229,6.418,22.632,16h-49.688L204.944,248.003z M264,304.003c0,13.255-10.745,24-24,24s-24-10.745-24-24v-24h48    V304.003z" fill="#103854"/>
	</g>
</g>
<g>
	<g>
		<path d="M272,344.003h-64c-22.08,0.026-39.974,17.92-40,40v56c0,4.418,3.582,8,8,8h128c4.418,0,8-3.582,8-8v-56    C311.974,361.923,294.08,344.03,272,344.003z M296,432.003h-16v-24c0-4.418-3.582-8-8-8s-8,3.582-8,8v24h-48v-24    c0-4.418-3.582-8-8-8s-8,3.582-8,8v24h-16v-48c0-13.255,10.745-24,24-24h64c13.255,0,24,10.745,24,24V432.003z" fill="#103854"/>
	</g>
</g>
<g>
	<g>
		<path d="M88,232.003H56c-13.255,0-24,10.745-24,24v48c0,22.091,17.909,40,40,40s40-17.909,40-40v-48    C112,242.748,101.255,232.003,88,232.003z M96,304.003c0,13.255-10.745,24-24,24s-24-10.745-24-24v-24h48V304.003z M96,264.003H48    v-8c0-4.418,3.582-8,8-8h32c4.418,0,8,3.582,8,8V264.003z" fill="#103854"/>
	</g>
</g>
<g>
	<g>
		<path d="M104,344.003H40c-22.08,0.026-39.974,17.92-40,40v56c0,4.418,3.582,8,8,8h128c4.418,0,8-3.582,8-8v-56    C143.974,361.923,126.08,344.03,104,344.003z M128,432.003h-16v-24c0-4.418-3.582-8-8-8s-8,3.582-8,8v24H48v-24    c0-4.418-3.582-8-8-8s-8,3.582-8,8v24H16v-48c0-13.255,10.745-24,24-24h64c13.255,0,24,10.745,24,24V432.003z" fill="#103854"/>
	</g>
</g>
<g>
	<g>
		<path d="M479.163,284.473c-0.001-0.002-0.002-0.004-0.003-0.006l-17.688-35.376c-14.766-29.532-50.677-41.501-80.209-26.735    c-11.569,5.785-20.95,15.166-26.735,26.735l-17.688,35.376c-1.976,3.952-0.374,8.757,3.578,10.733    c0.002,0.001,0.004,0.002,0.006,0.003l28.104,14.048c2.746,21.8,22.645,37.246,44.445,34.499    c18.029-2.271,32.228-16.47,34.499-34.499l0-0.04l28.104-14.008C479.53,293.231,481.135,288.427,479.163,284.473z M432,304.003    c0,13.255-10.745,24-24,24s-24-10.745-24-24v-24h48V304.003z M448,291.059v-19.056c0-4.418-3.582-8-8-8h-64c-4.418,0-8,3.582-8,8    v19.056l-13.264-6.632l14.104-28.224c10.816-21.628,37.117-30.392,58.744-19.576c8.471,4.236,15.34,11.105,19.576,19.576    l14.104,28.224L448,291.059z" fill="#103854"/>
	</g>
</g>
<g>
	<g>
		<path d="M440,344.003h-64c-22.08,0.026-39.974,17.92-40,40v56c0,4.418,3.582,8,8,8h128c4.418,0,8-3.582,8-8v-56    C479.974,361.923,462.08,344.03,440,344.003z M464,432.003h-16v-24c0-4.418-3.582-8-8-8s-8,3.582-8,8v24h-48v-24    c0-4.418-3.582-8-8-8s-8,3.582-8,8v24h-16v-48c0-13.255,10.745-24,24-24h64c13.255,0,24,10.745,24,24V432.003z" fill="#103854"/>
	</g>
</g>
<g>
	<g>
		<path d="M140.078,81.017C130.229,51.781,102.85,32.069,72,32.003c-39.764,0.085-71.931,32.39-71.845,72.154    c0.066,30.85,19.778,58.229,49.013,68.078l15.672,31.344c1.971,3.954,6.774,5.562,10.729,3.591    c1.555-0.775,2.816-2.036,3.591-3.591l15.672-31.344C132.516,159.54,152.773,118.7,140.078,81.017z M125.938,119.009    c-5.267,18.87-20.012,33.615-38.882,38.882c-2.178,0.607-3.997,2.106-5.008,4.128L72,182.115l-10.048-20.096    c-1.011-2.022-2.83-3.521-5.008-4.128c-29.789-8.315-47.197-39.205-38.882-68.994C26.377,59.108,57.267,41.7,87.056,50.015    S134.253,89.22,125.938,119.009z" fill="#103854"/>
	</g>
</g>
<g>
	<g>
		<path d="M308.078,81.017C298.229,51.781,270.85,32.069,240,32.003c-39.764,0.085-71.931,32.39-71.845,72.154    c0.066,30.85,19.778,58.229,49.013,68.078l15.672,31.344c1.971,3.954,6.774,5.562,10.729,3.591    c1.555-0.775,2.816-2.036,3.591-3.591l15.672-31.344C300.516,159.54,320.773,118.7,308.078,81.017z M293.938,119.009    c-5.267,18.87-20.012,33.615-38.882,38.882c-2.178,0.607-3.997,2.106-5.008,4.128L240,182.115l-10.048-20.096    c-1.011-2.022-2.83-3.521-5.008-4.128c-29.789-8.315-47.197-39.205-38.882-68.994c8.315-29.789,39.205-47.197,68.994-38.882    C284.845,58.33,302.253,89.22,293.938,119.009z" fill="#103854"/>
	</g>
</g>
<g>
	<g>
		<path d="M476.078,81.017C466.229,51.781,438.85,32.069,408,32.003c-39.764,0.085-71.931,32.39-71.845,72.154    c0.066,30.85,19.778,58.229,49.013,68.078l15.672,31.344c1.971,3.954,6.774,5.562,10.729,3.591    c1.555-0.775,2.816-2.036,3.591-3.591l15.672-31.344C468.516,159.54,488.773,118.7,476.078,81.017z M461.938,119.009    c-5.267,18.87-20.012,33.615-38.882,38.882c-2.178,0.607-3.997,2.106-5.008,4.128L408,182.115l-10.048-20.096    c-1.011-2.022-2.83-3.521-5.008-4.128c-29.789-8.315-47.197-39.205-38.882-68.994c8.315-29.789,39.205-47.197,68.994-38.882    C452.845,58.33,470.253,89.22,461.938,119.009z" fill="#103854"/>
	</g>
</g>
<g>
	<g>
		<path d="M441.656,78.347c-9.241-8.889-23.64-9.549-33.656-1.544c-10.008-8.014-24.407-7.367-33.656,1.512    c-9.747,9.753-9.747,25.559,0,35.312L408,147.315l33.656-33.656C451.404,103.906,451.404,88.1,441.656,78.347z M430.344,102.347    v-0.032L408,124.691l-22.344-22.344c-3.504-3.504-3.504-9.184,0-12.688c3.504-3.504,9.184-3.504,12.688,0L408,99.315l9.656-9.656    c3.504-3.504,9.184-3.504,12.688,0C433.848,93.163,433.848,98.843,430.344,102.347z" fill="#103854"/>
	</g>
</g>
<g>
	<g>
		<path d="M240,64.003c-22.091,0-40,17.909-40,40s17.909,40,40,40c22.091,0,40-17.909,40-40C279.974,81.923,262.08,64.03,240,64.003    z M216,104.003c0-13.255,10.745-24,24-24c3.564,0.014,7.078,0.834,10.28,2.4l-31.88,31.88    C216.834,111.082,216.014,107.567,216,104.003z M240,128.003c-3.564-0.014-7.078-0.834-10.28-2.4l31.88-31.88    c1.566,3.202,2.386,6.716,2.4,10.28C264,117.258,253.255,128.003,240,128.003z" fill="#103854"/>
	</g>
</g>
<g>
	<g>
		<rect x="40" y="96.003" width="64" height="16" fill="#103854"/>
	</g>
</g>
<g>
</g>
<g>
</g>
<g>
</g>
<g>
</g>
<g>
</g>
<g>
</g>
<g>
</g>
<g>
</g>
<g>
</g>
<g>
</g>
<g>
</g>
<g>
</g>
<g>
</g>
<g>
</g>
<g>
</g>
</svg>
